PathFileType	4	(X/Y/Z)	/home/abdul/Desktop/myosuite/custom_workspace/IK/output/S1_12_1.trc
DataRate	CameraRate	NumFrames	NumMarkers	Units	OrigDataRate	OrigDataStartFrame	OrigNumFrames
200.0	200.0	66	3	mm	200.0	1317	3511
Frame#	Time	V_Shoulder			V_Elbow			V_Wrist		
		X1	Y1	Z1	X2	Y2	Z2	X3	Y3	Z3

1317	6.58	-197.73199635754838	494.5958146096891	355.9464793000911	-288.9142270126497	358.5378716394021	16.565170776333158	-156.08438472718677	122.93881497945786	53.453955443693616
1318	6.585	-197.6688037709282	494.61139982859805	356.13373965507	-288.8619943881554	358.6955791067587	16.7499005703765	-156.0319971601794	123.03609726016842	53.564593271508556
1319	6.59	-197.60542984058281	494.6225891421837	356.3271879854785	-288.8171264719489	358.84358691008117	16.944346551382488	-155.9797290151062	123.12847191673724	53.685788499603774
1320	6.595	-197.54181788882477	494.6293850593143	356.52672200282086	-288.77991558681106	358.9813729979689	17.14861429239122	-155.92765929814806	123.21569227886138	53.81771392405065
1321	6.6	-197.4779105945457	494.63179491583134	356.73223152028976	-288.75064273056864	359.10843071391696	17.36279665071745	-155.87586670189438	123.29751951227428	53.96052955571656
1322	6.605	-197.4136500910281	494.62983069473347	356.9435986776277	-288.7295764301622	359.2242704800601	17.586973342067033	-155.8244292630783	123.37372331645932	54.11438192165041
1323	6.61	-197.34897806548528	494.62350883664476	357.160698179498	-288.7169716289858	359.32842142585247	17.82121054435422	-155.77342401135462	123.44408259552435	54.27940339310922
1324	6.615	-197.28383586017094	494.61285004176847	357.3833975466652	-288.7130686132394	359.4204329534536	18.065560533128853	-155.72292661060766	123.50838609920538	54.455711543915285
1325	6.62	-197.21816457488885	494.5978790645399	357.611557379279	-288.7180919828386	359.4998762319087	18.320061350435832	-155.67301099437898	123.56643303109459	54.64340854275247
1326	6.625	-197.1519051707213	494.5786245021946	357.84503163155097	-288.7322496721943	359.5663456125907	18.584736508832172	-155.62374899710295	123.61803362133637	54.84258058290301
1327	6.63	-197.08499857478645	494.5551185784614	358.08366789710493	-288.75573202590715	359.6194599588074	18.85959473218002	-155.57520998292512	123.66300966120204	55.05329735279494
1328	6.635	-197.01738578582376	494.5273969235807	358.327307704282	-288.78871093411794	359.65886388296326	19.144629734716705	-155.52746047395988	123.70119499713891	55.27561155057445
1329	6.64	-196.949007980399	494.49549835182825	358.57578682068123	-288.8313390319229	359.6842288852072	19.439820039775917	-155.48056377991378	123.7324359820921	55.509558445737554
1330	6.645	-196.8798066195105	494.45946463770497	358.82893556621275	-288.88374896690215	359.6952543880759	19.745128839397182	-155.43457963106195	123.75659188211378	55.755155490654076
1331	6.65	-196.80972355537355	494.4193402919177	359.08657913394876	-288.9460527384234	359.691668662267	20.060503895914692	-155.38956381661436	123.77353523650731	56.01240198459342
1332	6.655	-196.73870113815192	494.3751723382441	359.34853791805364	-289.01834111197945	359.6732296393243	20.385877486461393	-155.3455678305454	123.78315216999604	56.28127879261872
1333	6.66	-196.66668232240139	494.3270100923346	359.6146278480835	-289.100683111393	359.6397256077063	20.7211663911607	-155.3026385269864	123.7853426556609	56.5617481214552
1334	6.665	-196.59361077298612	494.27490494345693	359.8846607289447	-289.1931255912896	359.5909757894031	21.066271925607197	-155.2608177872919	123.7800207276523	56.853753354160816
1335	6.67	-196.51943097022627	494.2189101401416	360.1584445858096	-289.2956928917914	359.5268307949922	21.421080018059357	-155.22014220088892	123.7671146429507	57.15721894513609
1336	6.675	-196.44408831403493	494.1590805806322	360.4357840132896	-289.4083865769363	359.4471729557412	21.7854613315837	-155.18064276200468	123.74656699172195	57.47205037670657
1337	6.68	-196.36752922680083	494.0954726089889	360.71648052817153	-289.5311852578742	359.3519165321012	22.159271431200665	-155.14234458433742	123.7183347560887	57.79813417819784
1338	6.685	-196.289701254778	494.02814381763386	361.0003329250292	-289.6640445014407	359.24100779865205	22.542350995889976	-155.10526663569317	123.68238931741332	58.135338008102636
1339	6.69	-196.2105531677433	493.9571528570654	361.2871376340265	-289.80689682426464	359.1144250062823	22.93452607511849	-155.0694214945541	123.63871641245971	58.48351079961468
1340	6.695	-196.13003505669076	493.8825592534061	361.5766890802306	-289.9596517721304	358.97217822307994	23.335608389357073	-155.03481513047345	123.58731603906996	58.842482969476116
1341	6.7	-196.0480984293341	493.8044232343838	361.8687800437656	-290.12219608388943	358.8143090560942	23.745395673857566	-155.00144671010852	123.5282023122528	59.2120666897585
1342	6.705	-195.96469630319982	493.7228055642782	362.1632020201353	-290.29439393880625	358.640890256778	24.16367206476671	-154.9693084306059	123.46140327183443	59.59205622187388
1343	6.71	-195.87978329609874	493.63776738830285	362.4597455800513	-290.4760872858334	358.4520252135469	24.590208526463186	-154.93838538194404	123.38696064306511	59.98222831179369
1344	6.715	-195.79331571377622	493.54937008682333	362.7582007281075	-290.6670962529328	358.2478473354751	25.02476331881763	-154.90865543971802	123.30492955180605	60.38234264514345
1345	6.72	-195.70525163455116	493.45767513974715	363.0583572596476	-290.8672196342127	358.02851933170075	25.467082502895572	-154.88008918971926	123.21537819613812	60.79214236054144
1346	6.725	-195.61555099076747	493.36274400135864	363.36000511517415	-291.0762354523167	357.794232391622	25.916900483450586	-154.85264988552177	123.11838747643671	61.21135461926292
1347	6.73	-195.524175646893	493.2646379858065	363.66293473165666	-291.29390159320025	357.5452052714246	26.373940586391303	-154.82629344013546	123.01405058614208	61.63969122903944
1348	6.735	-195.43108947411807	493.16341816338894	363.96693739010044	-291.5199565101474	357.28168329290276	26.837915669251753	-154.80096845262926	122.90247256562209	62.07684931954798
1349	6.74	-195.3362584213181	493.05914526772455	364.27180555874116	-291.7541199936295	357.0039372608978	27.308528762552044	-154.77661627046137	122.7837698216742	62.522512066908426
1350	6.745	-195.23965058226221	492.9518796138352	364.5773332312415	-291.9960940033794	356.7122623059987	27.785473739805482	-154.753171088083	122.65806961534182	62.976349464291545
1351	6.75	-195.1412362589649	492.8416810271148	364.88331625926776	-292.24556355885454	356.4069766594105	28.268436013810337	-154.73056008220658	122.52550952083054	63.43801913554555
1352	6.755	-195.04098802109516	492.7286087831034	365.1895526788364	-292.5021976840883	356.088420367112	28.757093256759973	-154.70870358395038	122.38623685839715	63.90716718857698
1353	6.76	-194.93888076137424	492.61272155793796	365.49584302982754	-292.7656504027825	355.75695395058244	29.251116141614776	-154.68751528789153	122.24040810415269	64.38342910507319
1354	6.765	-194.83489174690882	492.49407738930194	365.8019906680733	-293.0355617793691	355.412957021486	29.750169102103253	-154.66690249787666	122.08818827976756	64.86643066302932
1355	6.77	-194.72900066642558	492.3727336476536	366.1078020694371	-293.3115590016731	355.0568268577607	30.25391110865847	-154.6467664092583	121.92975032509217	65.35578888844236
1356	6.775	-194.62118967338725	492.24874701747393	366.4130871253179	-293.5932575007348	354.6889769485642	30.76199645754914	-154.62700242704497	121.76527445671277	65.85111303245836
1357	6.78	-194.51144342498796	492.1221734882345	366.71765942902124	-293.88026210329724	354.3098355154897	31.27407557043276	-154.60750051927454	121.59494751544764	66.35200557020809
1358	6.785	-194.399749117041	491.99306835475636	367.021336552459	-294.172168212436	353.91984401737375	31.78979580154075	-154.58814560474713	121.41896230575546	66.8580632175373
1359	6.79	-194.2860965147878	491.86148622659834	367.32394031265636	-294.4685630117986	353.5194556458906	32.30880224970183	-154.56881797408198	121.23751692997695	67.36887796183298
1360	6.795	-194.17047797966953	491.72748104608877	367.6252970275603	-294.7690266889301	353.10913381894886	32.83073857242058	-154.54939374290004	121.05081412026149	67.8840381031644
1361	6.8	-194.05288849211937	491.59110611458954	367.9252377606688	-295.07313367318915	352.689350678697	33.35524779925154	-154.52974533577384	120.85906057094687	68.4031293019957
1362	6.805	-193.9333256704424	491.4524141265636	368.2235985540189	-295.3804538838015	352.26058560069214	33.88197314174565	-154.50974199943568	120.66246627406096	68.92573562978495
1363	6.81	-193.81178978586465	491.31145721100097	368.52022064910057	-295.6905539836591	351.82332372050786	34.41055879729434	-154.4892503435902	120.46124386050265	69.45144061886116
1364	6.815	-193.688283773841	491.1682869797431	368.81495069528273	-296.00299863454325	351.3780544837439	34.94065074425672	-154.46813490754283	120.25560794933513	69.9798283080648
1365	6.82	-193.5628132417221	491.02295458223944	369.10764094537484	-296.3173517495384	350.92527022506454	35.471897525825625	-154.4462587507284	120.04577450749225	70.5104842807462
1366	6.825	-193.43538647288733	490.8755107662618	369.3981494379703	-296.6331777384999	350.4654647815366	36.00395102016962	-154.42348406510632	119.83196022205608	71.04299669183875
1367	6.83	-193.30601442745788	490.7260059440959	369.68634016625333	-296.95004274254825	349.99913214515664	36.536467194477964	-154.39967280728283	119.6143818871162	71.57695728085953
1368	6.835	-193.17471073970964	490.5744902637346	369.9720832329819	-297.2675158536827	349.5267651590732	37.069106840633964	-154.3746873481217	119.3932558070679	72.11196236783395
1369	6.84	-193.0414917123077	490.4210136845927	370.255254991398	-297.5851703157347	349.04885426160286	37.601536290349046	-154.34839113752054	119.16879721805034	72.64761382929501
1370	6.845	-192.90637630748972	490.26562605727196	370.53573817184946	-297.90258470301865	348.5658862817352	38.13342810770275	-154.32064938195168	118.94121972906765	73.18352005166741
1371	6.85	-192.76938613532323	490.1083772069099	370.81342199394675	-298.2193440731843	348.0783432894091	38.66446175715351	-154.29132973230494	118.7107347841785	73.71929685951181
1372	6.855	-192.63054543916454	489.9493170196535	371.08820226411814	-298.5350410909259	347.5867015034337	39.194324245210005	-154.26030297951468	118.47755114698347	74.25456841627206
1373	6.86	-192.48988107844374	489.7884955318111	371.3599814584659	-298.8492771193643	347.0914302595203	39.72271073408171	-154.22744375541276	118.24187440848678	74.78896809533768
1374	6.865	-192.3474225088993	489.6259630212482	371.6286687908651	-299.16166327608164	346.5929910404918	40.24932512576067	-154.1926312362197	118.00390651926014	75.3221393194032
1375	6.87	-192.20320176038084	489.46177010060416	371.8941802662923	-299.4718214509629	346.0918365703476	40.77388061512195	-154.15574984606786	117.7638453466936	75.85373636627313
1376	6.875	-192.05725341233392	489.2959678119258	372.15643871940887	-299.77938528317134	345.5884099734853	41.29610021076817	-154.11668995794355	117.52188425798306	76.38342513942617
1377	6.88	-191.90961456707703	489.1286077223261	372.4153738384686	-300.08400109476827	345.0831440000168	41.815717222482505	-154.07534858944229	117.27821172937503	76.91088390181244
1378	6.885	-191.76032482097187	488.9597420202977	372.6709221746591	-300.38532877867306	344.57646031777483	42.332475714294276	-154.03163009074606	117.03301098207038	77.43580397151253
1379	6.89	-191.60942623358213	488.7894236123247	372.92302713702935	-300.6830426388453	344.06876887127726	42.84613092230052	-153.98544682226202	116.78645964507842	77.95789037803553
1380	6.895	-191.4569632949084	488.61770621945965	373.17163897319597	-300.9768321807662	343.56046730761443	43.35644963652515	-153.93671981940088	116.53872944521264	78.47686247817488
1381	6.9	-191.3029828907781	488.4446444735483	373.4167147360611	-301.26640285048893	343.0519404689401	43.86321054623433	-153.8853794420251	116.28998592432978	78.9924545304737
1382	6.905	-191.14753426646107	488.2702940128045	373.6582182368154	-301.5514767207235	342.5435599509862	44.36620454826077	-153.831366006159	116.0403881838343	79.5044162274766
